<mxfile modified="2021-06-15T15:14:16.551Z" host="app.diagrams.net" agent="5.0 (Macintosh; Intel Mac OS X 10_14_6) AppleWebKit/605.1.15 (KHTML, like Gecko) Version/14.0.3 Safari/605.1.15" etag="Z_FK76AksRLZzd3PVdXc" version="14.7.8" type="github">
  <diagram id="l8hXMBHkgcEJcSW0mbfh" name="Page-1">
    <mxGraphModel dx="1186" dy="1134" grid="1" gridSize="10" guides="1" tooltips="1" connect="1" arrows="1" fold="1" page="1" pageScale="1" pageWidth="1169" pageHeight="827" math="0" shadow="0">
      <root>
        <mxCell id="0" />
        <mxCell id="1" parent="0" />
        <mxCell id="c4o_frOQg1DkzZZVwCYL-3" style="edgeStyle=orthogonalEdgeStyle;rounded=0;orthogonalLoop=1;jettySize=auto;html=1;" parent="1" source="8--HhbSZYtI3ddgJnD71-16" target="c4o_frOQg1DkzZZVwCYL-1" edge="1">
          <mxGeometry relative="1" as="geometry" />
        </mxCell>
        <mxCell id="8--HhbSZYtI3ddgJnD71-16" value="User" style="shape=image;verticalLabelPosition=bottom;verticalAlign=top;imageAspect=0;aspect=fixed;image=data:image/svg+xml,PHN2ZyB4bWxucz0iaHR0cDovL3d3dy53My5vcmcvMjAwMC9zdmciIHZlcnNpb249IjEiIHZpZXdCb3g9IjAgMCA0OCA0OCIgZW5hYmxlLWJhY2tncm91bmQ9Im5ldyAwIDAgNDggNDgiPiYjeGE7ICAgIDxwb2x5Z29uIGZpbGw9IiNGRjk4MDAiIHBvaW50cz0iMjQsMzcgMTksMzEgMTksMjUgMjksMjUgMjksMzEiLz4mI3hhOyAgICA8ZyBmaWxsPSIjRkZBNzI2Ij4mI3hhOyAgICAgICAgPGNpcmNsZSBjeD0iMzMiIGN5PSIxOSIgcj0iMiIvPiYjeGE7ICAgICAgICA8Y2lyY2xlIGN4PSIxNSIgY3k9IjE5IiByPSIyIi8+JiN4YTsgICAgPC9nPiYjeGE7ICAgIDxwYXRoIGZpbGw9IiNGRkI3NEQiIGQ9Ik0zMywxM2MwLTcuNi0xOC01LTE4LDBjMCwxLjEsMCw1LjksMCw3YzAsNSw0LDksOSw5czktNCw5LTlDMzMsMTguOSwzMywxNC4xLDMzLDEzeiIvPiYjeGE7ICAgIDxwYXRoIGZpbGw9IiM0MjQyNDIiIGQ9Ik0yNCw0Yy02LjEsMC0xMCw0LjktMTAsMTFjMCwwLjgsMCwyLjMsMCwyLjNsMiwxLjd2LTVsMTItNGw0LDR2NWwyLTEuN2MwLDAsMC0xLjUsMC0yLjNjMC00LTEtOC02LTlsLTEtMiBIMjR6Ii8+JiN4YTsgICAgPGcgZmlsbD0iIzc4NDcxOSI+JiN4YTsgICAgICAgIDxjaXJjbGUgY3g9IjI4IiBjeT0iMTkiIHI9IjEiLz4mI3hhOyAgICAgICAgPGNpcmNsZSBjeD0iMjAiIGN5PSIxOSIgcj0iMSIvPiYjeGE7ICAgIDwvZz4mI3hhOyAgICA8cG9seWdvbiBmaWxsPSIjZmZmIiBwb2ludHM9IjI0LDQzIDE5LDMxIDI0LDMyIDI5LDMxIi8+JiN4YTsgICAgPHBvbHlnb24gZmlsbD0iI0QzMkYyRiIgcG9pbnRzPSIyMywzNSAyMi4zLDM5LjUgMjQsNDMuNSAyNS43LDM5LjUgMjUsMzUgMjYsMzQgMjQsMzIgMjIsMzQiLz4mI3hhOyAgICA8cGF0aCBmaWxsPSIjNTQ2RTdBIiBkPSJNMjksMzFMMjksMzFsLTUsMTJsLTUtMTJjMCwwLTExLDItMTEsMTNoMzJDNDAsMzMsMjksMzEsMjksMzF6Ii8+JiN4YTs8L3N2Zz4=;labelBackgroundColor=#ffffff;" parent="1" vertex="1">
          <mxGeometry x="85" y="437" width="48" height="48" as="geometry" />
        </mxCell>
        <mxCell id="c4o_frOQg1DkzZZVwCYL-5" style="edgeStyle=orthogonalEdgeStyle;rounded=0;orthogonalLoop=1;jettySize=auto;html=1;entryX=0.5;entryY=1;entryDx=0;entryDy=0;" parent="1" source="c4o_frOQg1DkzZZVwCYL-1" target="c4o_frOQg1DkzZZVwCYL-4" edge="1">
          <mxGeometry relative="1" as="geometry" />
        </mxCell>
        <mxCell id="c4o_frOQg1DkzZZVwCYL-1" value="" style="shape=image;html=1;verticalAlign=top;verticalLabelPosition=bottom;labelBackgroundColor=#ffffff;imageAspect=0;aspect=fixed;image=https://cdn3.iconfinder.com/data/icons/glypho-free/64/laptop-128.png" parent="1" vertex="1">
          <mxGeometry x="205" y="417" width="88" height="88" as="geometry" />
        </mxCell>
        <mxCell id="c4o_frOQg1DkzZZVwCYL-4" value="" style="shape=image;html=1;verticalAlign=top;verticalLabelPosition=bottom;labelBackgroundColor=#ffffff;imageAspect=0;aspect=fixed;image=https://cdn4.iconfinder.com/data/icons/socialcones/508/Github-128.png" parent="1" vertex="1">
          <mxGeometry x="214" y="207" width="50" height="50" as="geometry" />
        </mxCell>
        <mxCell id="c4o_frOQg1DkzZZVwCYL-30" style="edgeStyle=orthogonalEdgeStyle;rounded=0;orthogonalLoop=1;jettySize=auto;html=1;entryX=0;entryY=0.5;entryDx=0;entryDy=0;" parent="1" target="c4o_frOQg1DkzZZVwCYL-24" edge="1">
          <mxGeometry relative="1" as="geometry">
            <mxPoint x="540.9464558125153" y="205" as="sourcePoint" />
            <Array as="points">
              <mxPoint x="541" y="240" />
              <mxPoint x="587" y="240" />
              <mxPoint x="587" y="402" />
            </Array>
          </mxGeometry>
        </mxCell>
        <mxCell id="c4o_frOQg1DkzZZVwCYL-35" style="edgeStyle=orthogonalEdgeStyle;rounded=0;orthogonalLoop=1;jettySize=auto;html=1;" parent="1" source="c4o_frOQg1DkzZZVwCYL-7" edge="1">
          <mxGeometry relative="1" as="geometry">
            <mxPoint x="1016" y="430" as="targetPoint" />
            <Array as="points">
              <mxPoint x="1016" y="226" />
            </Array>
          </mxGeometry>
        </mxCell>
        <mxCell id="c4o_frOQg1DkzZZVwCYL-38" style="edgeStyle=orthogonalEdgeStyle;rounded=0;orthogonalLoop=1;jettySize=auto;html=1;entryX=0;entryY=0.5;entryDx=0;entryDy=0;" parent="1" source="c4o_frOQg1DkzZZVwCYL-7" target="c4o_frOQg1DkzZZVwCYL-33" edge="1">
          <mxGeometry relative="1" as="geometry">
            <Array as="points">
              <mxPoint x="565" y="257" />
              <mxPoint x="565" y="575" />
            </Array>
          </mxGeometry>
        </mxCell>
        <mxCell id="c4o_frOQg1DkzZZVwCYL-7" value="" style="aspect=fixed;perimeter=ellipsePerimeter;html=1;align=center;fontSize=12;verticalAlign=top;fontColor=#364149;shadow=0;dashed=0;image;image=img/lib/cumulus/rack_cumulus_linux.svg;" parent="1" vertex="1">
          <mxGeometry x="482" y="191" width="58.95" height="70" as="geometry" />
        </mxCell>
        <mxCell id="c4o_frOQg1DkzZZVwCYL-12" style="edgeStyle=orthogonalEdgeStyle;rounded=0;orthogonalLoop=1;jettySize=auto;html=1;entryX=1;entryY=0.5;entryDx=0;entryDy=0;" parent="1" target="c4o_frOQg1DkzZZVwCYL-4" edge="1">
          <mxGeometry relative="1" as="geometry">
            <mxPoint x="475" y="232" as="sourcePoint" />
          </mxGeometry>
        </mxCell>
        <mxCell id="c4o_frOQg1DkzZZVwCYL-8" value="" style="shape=image;html=1;verticalAlign=top;verticalLabelPosition=bottom;labelBackgroundColor=#ffffff;imageAspect=0;aspect=fixed;image=https://cdn4.iconfinder.com/data/icons/logos-brands-5/24/jenkins-128.png" parent="1" vertex="1">
          <mxGeometry x="489.46999999999997" y="212" width="40" height="40" as="geometry" />
        </mxCell>
        <mxCell id="c4o_frOQg1DkzZZVwCYL-13" value="" style="verticalLabelPosition=bottom;html=1;verticalAlign=top;align=center;strokeColor=none;fillColor=#00BEF2;shape=mxgraph.azure.visual_studio_online;" parent="1" vertex="1">
          <mxGeometry x="237.34" y="447" width="23.33" height="17.5" as="geometry" />
        </mxCell>
        <mxCell id="c4o_frOQg1DkzZZVwCYL-15" value="" style="shape=image;html=1;verticalAlign=top;verticalLabelPosition=bottom;labelBackgroundColor=#ffffff;imageAspect=0;aspect=fixed;image=https://cdn3.iconfinder.com/data/icons/social-media-2169/24/social_media_social_media_logo_git-128.png" parent="1" vertex="1">
          <mxGeometry x="230.33999999999997" y="386" width="40" height="40" as="geometry" />
        </mxCell>
        <mxCell id="c4o_frOQg1DkzZZVwCYL-16" value="Commit" style="text;html=1;resizable=0;autosize=1;align=center;verticalAlign=middle;points=[];fillColor=none;strokeColor=none;rounded=0;rotation=0;" parent="1" vertex="1">
          <mxGeometry x="270.34000000000003" y="396" width="60" height="20" as="geometry" />
        </mxCell>
        <mxCell id="c4o_frOQg1DkzZZVwCYL-17" value="&lt;font face=&quot;Verdana&quot;&gt;&lt;span style=&quot;font-size: 19px&quot;&gt;GitHub&lt;/span&gt;&lt;/font&gt;" style="text;html=1;resizable=0;autosize=1;align=center;verticalAlign=middle;points=[];fillColor=none;strokeColor=none;rounded=0;rotation=0;" parent="1" vertex="1">
          <mxGeometry x="205.00000000000003" y="177" width="80" height="20" as="geometry" />
        </mxCell>
        <mxCell id="c4o_frOQg1DkzZZVwCYL-18" value="&lt;font face=&quot;Verdana&quot; style=&quot;font-size: 19px&quot;&gt;&lt;b&gt;Jenkins&lt;/b&gt;&lt;/font&gt;" style="text;html=1;resizable=0;autosize=1;align=center;verticalAlign=middle;points=[];fillColor=none;strokeColor=none;rounded=0;rotation=0;" parent="1" vertex="1">
          <mxGeometry x="461.47" y="167" width="100" height="20" as="geometry" />
        </mxCell>
        <mxCell id="c4o_frOQg1DkzZZVwCYL-19" value="&lt;font face=&quot;Verdana&quot; style=&quot;font-size: 14px&quot;&gt;Monitora Mudanças&lt;/font&gt;" style="text;html=1;resizable=0;autosize=1;align=center;verticalAlign=middle;points=[];fillColor=none;strokeColor=none;rounded=0;rotation=0;" parent="1" vertex="1">
          <mxGeometry x="300" y="207" width="150" height="20" as="geometry" />
        </mxCell>
        <mxCell id="c4o_frOQg1DkzZZVwCYL-20" value="" style="shape=image;html=1;verticalAlign=top;verticalLabelPosition=bottom;labelBackgroundColor=#ffffff;imageAspect=0;aspect=fixed;image=https://cdn3.iconfinder.com/data/icons/social-media-2169/24/social_media_social_media_logo_docker-128.png" parent="1" vertex="1">
          <mxGeometry x="983.99" y="431.25" width="82.5" height="82.5" as="geometry" />
        </mxCell>
        <mxCell id="c4o_frOQg1DkzZZVwCYL-21" value="&lt;div style=&quot;text-align: left ; font-size: 14px&quot;&gt;&lt;ol&gt;&lt;li&gt;&lt;font face=&quot;Verdana&quot;&gt;Baixa o Código do Git&lt;br&gt;&lt;/font&gt;&lt;/li&gt;&lt;li&gt;&lt;font face=&quot;Verdana&quot;&gt;Gera imagem Docker (Dockerfile)&lt;br&gt;&lt;/font&gt;&lt;/li&gt;&lt;li&gt;&lt;font face=&quot;Verdana&quot;&gt;Faz o pull da imagem para Dockerhub&lt;/font&gt;&lt;/li&gt;&lt;/ol&gt;&lt;/div&gt;" style="text;html=1;resizable=0;autosize=1;align=center;verticalAlign=middle;points=[];fillColor=none;strokeColor=none;rounded=0;rotation=0;" parent="1" vertex="1">
          <mxGeometry x="561.47" y="150" width="320" height="80" as="geometry" />
        </mxCell>
        <mxCell id="c4o_frOQg1DkzZZVwCYL-23" value="&lt;font face=&quot;Verdana&quot; style=&quot;font-size: 14px&quot; color=&quot;#007fff&quot;&gt;&lt;b&gt;DockerHub&lt;/b&gt;&lt;/font&gt;" style="text;html=1;resizable=0;autosize=1;align=center;verticalAlign=middle;points=[];fillColor=none;strokeColor=none;rounded=0;rotation=0;" parent="1" vertex="1">
          <mxGeometry x="966.49" y="505" width="100" height="20" as="geometry" />
        </mxCell>
        <mxCell id="c4o_frOQg1DkzZZVwCYL-36" style="edgeStyle=orthogonalEdgeStyle;rounded=0;orthogonalLoop=1;jettySize=auto;html=1;" parent="1" source="c4o_frOQg1DkzZZVwCYL-24" edge="1">
          <mxGeometry relative="1" as="geometry">
            <mxPoint x="976.49" y="468" as="targetPoint" />
            <Array as="points">
              <mxPoint x="946.49" y="402" />
              <mxPoint x="946.49" y="468" />
            </Array>
          </mxGeometry>
        </mxCell>
        <mxCell id="c4o_frOQg1DkzZZVwCYL-24" value="" style="aspect=fixed;perimeter=ellipsePerimeter;html=1;align=center;fontSize=12;verticalAlign=top;fontColor=#364149;shadow=0;dashed=0;image;image=img/lib/cumulus/rack_cumulus_linux.svg;" parent="1" vertex="1">
          <mxGeometry x="616.49" y="364" width="64.21" height="76.25" as="geometry" />
        </mxCell>
        <mxCell id="c4o_frOQg1DkzZZVwCYL-25" value="&lt;b&gt;&lt;font face=&quot;Verdana&quot; style=&quot;font-size: 12px&quot;&gt;132.226.254.188:8080&lt;/font&gt;&lt;/b&gt;" style="text;html=1;resizable=0;autosize=1;align=center;verticalAlign=middle;points=[];fillColor=none;strokeColor=none;rounded=0;rotation=0;" parent="1" vertex="1">
          <mxGeometry x="424.47" y="267" width="170" height="20" as="geometry" />
        </mxCell>
        <mxCell id="c4o_frOQg1DkzZZVwCYL-26" value="&lt;font face=&quot;Verdana&quot; style=&quot;font-size: 12px&quot;&gt;Estação de Trabalho&lt;/font&gt;" style="text;html=1;resizable=0;autosize=1;align=center;verticalAlign=middle;points=[];fillColor=none;strokeColor=none;rounded=0;rotation=0;" parent="1" vertex="1">
          <mxGeometry x="179.00000000000003" y="497" width="140" height="20" as="geometry" />
        </mxCell>
        <mxCell id="c4o_frOQg1DkzZZVwCYL-27" value="&lt;font face=&quot;Verdana&quot; style=&quot;font-size: 19px&quot;&gt;&lt;b&gt;Server Desenvolvimento&lt;/b&gt;&lt;/font&gt;" style="text;html=1;resizable=0;autosize=1;align=center;verticalAlign=middle;points=[];fillColor=none;strokeColor=none;rounded=0;rotation=0;" parent="1" vertex="1">
          <mxGeometry x="609.47" y="337" width="280" height="20" as="geometry" />
        </mxCell>
        <mxCell id="c4o_frOQg1DkzZZVwCYL-29" value="&lt;div&gt;&lt;span style=&quot;font-family: &amp;#34;verdana&amp;#34; ; font-size: 14px&quot;&gt;4. Baixa a imagem do Repositório&lt;/span&gt;&lt;br&gt;&lt;font face=&quot;verdana&quot;&gt;&lt;span style=&quot;font-size: 14px&quot;&gt;5. Sobe Docker&amp;nbsp;Desenv na porta &lt;/span&gt;&lt;/font&gt;&lt;b style=&quot;font-family: &amp;#34;verdana&amp;#34;&quot;&gt;8000&lt;/b&gt;&lt;br&gt;&lt;/div&gt;" style="text;html=1;resizable=0;autosize=1;align=left;verticalAlign=middle;points=[];fillColor=none;strokeColor=none;rounded=0;rotation=0;" parent="1" vertex="1">
          <mxGeometry x="686.49" y="364" width="280" height="40" as="geometry" />
        </mxCell>
        <mxCell id="c4o_frOQg1DkzZZVwCYL-39" style="edgeStyle=orthogonalEdgeStyle;rounded=0;orthogonalLoop=1;jettySize=auto;html=1;entryX=0.52;entryY=0.993;entryDx=0;entryDy=0;entryPerimeter=0;" parent="1" source="c4o_frOQg1DkzZZVwCYL-33" target="c4o_frOQg1DkzZZVwCYL-23" edge="1">
          <mxGeometry relative="1" as="geometry">
            <Array as="points">
              <mxPoint x="1020" y="600" />
              <mxPoint x="1020" y="533" />
              <mxPoint x="1019" y="533" />
            </Array>
          </mxGeometry>
        </mxCell>
        <mxCell id="c4o_frOQg1DkzZZVwCYL-33" value="" style="aspect=fixed;perimeter=ellipsePerimeter;html=1;align=center;fontSize=12;verticalAlign=top;fontColor=#364149;shadow=0;dashed=0;image;image=img/lib/cumulus/rack_cumulus_linux.svg;" parent="1" vertex="1">
          <mxGeometry x="614.4700000000001" y="537" width="64.21" height="76.25" as="geometry" />
        </mxCell>
        <mxCell id="c4o_frOQg1DkzZZVwCYL-34" value="&lt;font face=&quot;Verdana&quot; style=&quot;font-size: 19px&quot;&gt;&lt;b&gt;Server Produção&lt;/b&gt;&lt;/font&gt;" style="text;html=1;resizable=0;autosize=1;align=center;verticalAlign=middle;points=[];fillColor=none;strokeColor=none;rounded=0;rotation=0;" parent="1" vertex="1">
          <mxGeometry x="609.47" y="513.75" width="190" height="20" as="geometry" />
        </mxCell>
        <mxCell id="c4o_frOQg1DkzZZVwCYL-37" value="&lt;div style=&quot;text-align: left ; font-size: 13px&quot;&gt;&lt;font face=&quot;Verdana&quot; style=&quot;font-size: 13px&quot;&gt;8. Baixa a imagem do Repositório&lt;br&gt;&lt;/font&gt;&lt;font face=&quot;Verdana&quot; style=&quot;font-size: 13px&quot;&gt;9. Sobe o Docker Produção na porta &lt;b&gt;9000&lt;/b&gt;&lt;/font&gt;&lt;br&gt;&lt;/div&gt;" style="text;html=1;resizable=0;autosize=1;align=center;verticalAlign=middle;points=[];fillColor=none;strokeColor=none;rounded=0;rotation=0;" parent="1" vertex="1">
          <mxGeometry x="680.96" y="553.13" width="290" height="40" as="geometry" />
        </mxCell>
        <mxCell id="c4o_frOQg1DkzZZVwCYL-43" value="" style="aspect=fixed;perimeter=ellipsePerimeter;html=1;align=center;shadow=0;dashed=0;spacingTop=3;image;image=img/lib/active_directory/internet_cloud.svg;" parent="1" vertex="1">
          <mxGeometry x="622.58" y="564.38" width="50" height="31.5" as="geometry" />
        </mxCell>
        <mxCell id="c4o_frOQg1DkzZZVwCYL-44" value="" style="aspect=fixed;perimeter=ellipsePerimeter;html=1;align=center;shadow=0;dashed=0;spacingTop=3;image;image=img/lib/active_directory/internet_cloud.svg;" parent="1" vertex="1">
          <mxGeometry x="624.6" y="394" width="50" height="31.5" as="geometry" />
        </mxCell>
        <mxCell id="c4o_frOQg1DkzZZVwCYL-47" value="&lt;div style=&quot;text-align: center&quot;&gt;&lt;b style=&quot;font-family: &amp;#34;verdana&amp;#34;&quot;&gt;132.226.254.188&lt;/b&gt;&lt;/div&gt;&lt;span&gt;&lt;div style=&quot;text-align: center&quot;&gt;&lt;b style=&quot;font-family: &amp;#34;verdana&amp;#34;&quot;&gt;&lt;font style=&quot;font-size: 10px&quot;&gt;hostname&lt;/font&gt;&lt;span style=&quot;font-size: 11px&quot;&gt;: &lt;/span&gt;&lt;/b&gt;&lt;font style=&quot;font-family: &amp;#34;verdana&amp;#34; ; font-size: 10px&quot;&gt;dockeriesb&lt;/font&gt;&lt;/div&gt;&lt;/span&gt;" style="text;whiteSpace=wrap;html=1;" parent="1" vertex="1">
          <mxGeometry x="586.49" y="437.25" width="165" height="47.75" as="geometry" />
        </mxCell>
        <mxCell id="c4o_frOQg1DkzZZVwCYL-48" value="&lt;div style=&quot;text-align: center&quot;&gt;&lt;b style=&quot;font-family: &amp;#34;verdana&amp;#34;&quot;&gt;152.67.54.199&lt;/b&gt;&lt;/div&gt;&lt;b style=&quot;color: rgb(0 , 0 , 0) ; font-family: &amp;#34;verdana&amp;#34; ; font-style: normal ; letter-spacing: normal ; text-indent: 0px ; text-transform: none ; word-spacing: 0px ; text-decoration: none&quot;&gt;&lt;div style=&quot;text-align: center&quot;&gt;&lt;b&gt;&lt;font style=&quot;font-size: 10px&quot;&gt;hostname&lt;/font&gt;&lt;span style=&quot;font-size: 11px&quot;&gt;:&amp;nbsp;&lt;/span&gt;&lt;/b&gt;&lt;span style=&quot;font-size: 12px ; font-family: &amp;#34;helvetica&amp;#34; ; font-weight: normal&quot;&gt;isa-02&lt;/span&gt;&lt;/div&gt;&lt;/b&gt;" style="text;whiteSpace=wrap;html=1;" parent="1" vertex="1">
          <mxGeometry x="594.47" y="613.25" width="150" height="30" as="geometry" />
        </mxCell>
        <mxCell id="c4o_frOQg1DkzZZVwCYL-50" value="&lt;font face=&quot;Verdana&quot; style=&quot;font-size: 25px&quot;&gt;&lt;b&gt;Devops usando Jenkins, Docker, GitHub e DockerHub&amp;nbsp;&lt;/b&gt;&lt;/font&gt;" style="text;html=1;resizable=0;autosize=1;align=center;verticalAlign=middle;points=[];fillColor=none;strokeColor=none;rounded=0;" parent="1" vertex="1">
          <mxGeometry x="215" y="40" width="770" height="30" as="geometry" />
        </mxCell>
      </root>
    </mxGraphModel>
  </diagram>
</mxfile>
